<?xml version="1.0" encoding="UTF-8" standalone="no"?>
<svg
   xmlns:dc="http://purl.org/dc/elements/1.1/"
   xmlns:cc="http://creativecommons.org/ns#"
   xmlns:rdf="http://www.w3.org/1999/02/22-rdf-syntax-ns#"
   xmlns:svg="http://www.w3.org/2000/svg"
   xmlns="http://www.w3.org/2000/svg"
   xmlns:sodipodi="http://sodipodi.sourceforge.net/DTD/sodipodi-0.dtd"
   xmlns:inkscape="http://www.inkscape.org/namespaces/inkscape"
   version="1.0"
   width="244.25999"
   height="381.25"
   viewBox="0 0 195.408 305"
   preserveAspectRatio="xMidYMid meet"
   id="svg2"
   inkscape:version="0.48.5 r10040"
   sodipodi:docname="Unbenannt-1.svg">
  <defs
     id="defs32" />
  <sodipodi:namedview
     pagecolor="#ffffff"
     bordercolor="#666666"
     borderopacity="1"
     objecttolerance="10"
     gridtolerance="10"
     guidetolerance="10"
     inkscape:pageopacity="0"
     inkscape:pageshadow="2"
     inkscape:window-width="1366"
     inkscape:window-height="705"
     id="namedview30"
     showgrid="false"
     inkscape:zoom="1.2609375"
     inkscape:cx="113.53661"
     inkscape:cy="187.30507"
     inkscape:window-x="-8"
     inkscape:window-y="-8"
     inkscape:window-maximized="1"
     inkscape:current-layer="svg2" />
  <metadata
     id="metadata4">
Created by potrace 1.11, written by Peter Selinger 2001-2013
<rdf:RDF>
  <cc:Work
     rdf:about="">
    <dc:format>image/svg+xml</dc:format>
    <dc:type
       rdf:resource="http://purl.org/dc/dcmitype/StillImage" />
    <dc:title></dc:title>
  </cc:Work>
</rdf:RDF>
</metadata>
  <g
     transform="matrix(0.0363896,0,0,-0.0363896,-1.4162181,305.63009)"
     id="g6"
     style="fill:#c42126;fill-opacity:1;stroke:none">
    <path
       d="m 1329,8353 c 10,-27 40,-103 66,-170 l 48,-123 143,0 144,0 0,-802 c 1,-442 3,-866 5,-943 2,-77 7,-765 10,-1530 3,-765 8,-1811 11,-2325 l 6,-935 54,-640 c 77,-916 74,-881 93,-859 6,7 89,991 121,1444 5,69 11,863 15,1765 3,902 8,1678 10,1725 2,47 7,819 10,1715 4,897 8,1651 11,1678 l 4,47 -385,0 -385,0 19,-47 z"
       id="path8"
       style="fill:#c42126;fill-opacity:1"
       inkscape:connector-curvature="0" />
    <path
       d="m 2190,7265 0,-1135 170,0 170,0 0,475 0,475 75,0 75,0 0,-475 0,-475 170,0 170,0 0,1135 0,1135 -170,0 -170,0 0,-490 0,-490 -75,0 -75,0 0,490 0,490 -170,0 -170,0 0,-1135 z"
       id="path10"
       style="fill:#c42126;fill-opacity:1"
       inkscape:connector-curvature="0" />
    <path
       d="m 3130,7265 0,-1135 346,0 c 190,0 344,3 342,8 -1,4 -32,80 -67,170 l -64,162 -104,0 -103,0 0,335 0,335 110,0 110,0 0,170 0,170 -110,0 -110,0 0,305 0,305 170,0 170,0 0,155 0,155 -345,0 -345,0 0,-1135 z"
       id="path12"
       style="fill:#c42126;fill-opacity:1"
       inkscape:connector-curvature="0" />
    <path
       d="m 40,4873 0,-1138 345,3 345,3 -2,167 -3,167 -172,3 -173,2 0,330 c 0,257 3,330 13,331 6,0 58,0 115,-1 l 102,-1 0,170 0,170 -112,3 -113,3 0,305 0,305 105,3 105,3 57,137 c 32,75 60,145 64,155 6,16 -14,17 -335,17 l -341,0 0,-1137 z"
       id="path14"
       style="fill:#c42126;fill-opacity:1"
       inkscape:connector-curvature="0" />
    <path
       d="m 760,5999 c 0,-7 63,-512 140,-1124 77,-612 140,-1117 140,-1123 0,-7 54,-12 160,-14 154,-3 161,-2 165,17 2,11 11,79 20,150 9,72 41,321 70,555 30,234 86,675 125,981 38,305 70,558 70,562 0,4 -69,7 -154,7 l -155,0 -5,-42 c -3,-24 -31,-315 -61,-648 -31,-333 -57,-612 -59,-620 -3,-13 -3,-13 -8,0 -3,8 -27,283 -52,610 -26,327 -50,619 -53,648 l -6,52 -168,0 c -119,0 -169,-3 -169,-11 z"
       id="path16"
       style="fill:#c42126;fill-opacity:1"
       inkscape:connector-curvature="0" />
    <path
       d="m 2180,4875 0,-1135 400,0 c 220,0 400,1 400,3 0,1 -29,77 -64,167 l -64,165 -158,2 -159,2 -3,965 -2,966 -175,0 -174,0 -1,-1135 z"
       id="path18"
       style="fill:#c42126;fill-opacity:1"
       inkscape:connector-curvature="0" />
    <path
       d="m 316,3578 c 12,-67 264,-2191 264,-2217 l 0,-31 149,0 148,0 6,43 c 3,23 26,245 52,492 26,248 49,457 53,465 5,14 28,-182 87,-737 l 28,-263 138,0 137,0 6,38 c 4,20 24,188 46,372 21,184 80,675 130,1091 49,416 90,759 90,762 0,4 -70,7 -155,7 -85,0 -155,-3 -155,-7 0,-3 -25,-234 -54,-512 -67,-617 -64,-592 -65,-613 -2,-30 -21,-20 -21,10 1,15 -21,273 -47,575 l -47,547 -113,0 c -109,0 -113,-1 -117,-22 -7,-34 -96,-1047 -96,-1090 0,-21 -4,-38 -9,-38 -10,0 -6,-36 -67,628 l -48,522 -172,0 -171,0 3,-22 z"
       id="path20"
       style="fill:#c42126;fill-opacity:1"
       inkscape:connector-curvature="0" />
    <path
       d="m 2182,3433 3,-168 118,-3 117,-3 0,-964 0,-965 173,0 172,0 -3,965 -2,964 112,3 112,3 1,168 0,167 -403,0 -402,0 2,-167 z"
       id="path22"
       style="fill:#c42126;fill-opacity:1"
       inkscape:connector-curvature="0" />
    <path
       d="m 3085,2465 0,-1135 173,0 172,0 0,475 0,475 75,0 75,0 -2,-475 -3,-475 173,0 172,0 0,1135 0,1135 -172,0 -173,0 0,-487 0,-488 -72,-3 -73,-3 0,491 0,490 -172,0 -173,0 0,-1135 z"
       id="path24"
       style="fill:#c42126;fill-opacity:1"
       inkscape:connector-curvature="0" />
    <path
       d="m 4050,2465 0,-1135 175,0 175,0 0,1135 0,1135 -175,0 -175,0 0,-1135 z"
       id="path26"
       style="fill:#c42126;fill-opacity:1"
       inkscape:connector-curvature="0" />
    <path
       d="m 4510,2465 0,-1135 145,0 145,0 2,603 c 2,331 6,595 10,587 3,-8 54,-249 113,-535 59,-286 113,-550 122,-587 l 15,-68 174,0 174,0 0,1135 0,1135 -145,0 -146,0 1,-606 c 1,-333 -1,-608 -4,-611 -2,-3 -7,10 -10,28 -24,144 -186,1171 -186,1179 0,6 -73,10 -205,10 l -205,0 0,-1135 z"
       id="path28"
       style="fill:#c42126;fill-opacity:1"
       inkscape:connector-curvature="0" />
  </g>
</svg>
